<?xml version="1.0" encoding="UTF-8" standalone="no"?>
<!DOCTYPE svg PUBLIC "-//W3C//DTD SVG 1.1//EN" "http://www.w3.org/Graphics/SVG/1.1/DTD/svg11.dtd">
<svg width="100%" height="100%" viewBox="0 0 4961 3508" version="1.1" xmlns="http://www.w3.org/2000/svg" xmlns:xlink="http://www.w3.org/1999/xlink" xml:space="preserve" xmlns:serif="http://www.serif.com/" style="fill-rule:evenodd;clip-rule:evenodd;stroke-linejoin:round;stroke-miterlimit:2;">
    <g transform="matrix(1,0,0,1,4.98303,-3.85089)">
        <g transform="matrix(20.0057,1.97215e-31,1.97215e-31,17.3691,4.62238,20.8781)">
            <path d="M38.6,0L208.13,0C222.76,0.68 236.68,9.73 242.9,23.04C246,29.09 246.85,35.92 247,42.64L247,52.72C246.24,55.4 244,57.83 241.05,57.78C237.83,58.07 234.66,55.33 234.78,52.03C234.8,45.56 234.98,38.87 232.36,32.79C227.48,20.21 214.51,11.4 201.01,11.51C149.01,11.51 97,11.47 45,11.53C27.74,11.53 12.29,26.67 12.03,43.94C11.95,80.63 12.03,117.33 11.99,154.03C11.91,161.32 14.27,168.6 18.63,174.45C24.68,182.72 34.72,188 45,188.01C97.31,187.99 149.63,188 201.94,188.01C216.19,187.98 229.48,177.6 233.37,163.96C235.65,156.34 234.45,148.32 234.75,140.51C175.82,140.49 116.89,140.52 57.96,140.49C51.62,140.7 45.13,135.64 45.29,128.99C45.22,107.02 45.24,85.05 45.28,63.08C45.16,59.91 47.72,56.7 51.01,56.71C54.54,56.16 57.89,59.43 57.52,62.95C57.47,82.62 57.54,102.28 57.48,121.95C57.52,123.58 57.44,125.27 57.97,126.84C58.82,128.3 60.58,127.93 61.98,128.02C117.96,127.97 173.95,128.02 229.93,127.99C234.32,128.17 239.12,127.41 243.15,129.57C246.13,131.09 247.01,134.57 247,137.68L247,162.1C246.06,172.27 241.75,182.24 234.18,189.22C228.05,195.14 219.95,198.88 211.52,200L34.73,200C17.09,197.79 2.15,182.85 0,165.2L0,35.28C1.37,24.98 6.83,15.28 14.99,8.84C21.65,3.44 30.09,0.53 38.6,0Z" style="fill-rule:nonzero;"/>
        </g>
        <g transform="matrix(28.887,0,0,31.6809,-37267.6,-48661.9)">
            <g transform="matrix(50,0,0,50,1383.98,1604.61)">
            </g>
            <text x="1331.23px" y="1604.61px" style="font-family:'ArialRoundedMTBold', 'Arial Rounded MT Bold', sans-serif;font-size:50px;">G<tspan x="1368.33px " y="1604.61px ">I</tspan></text>
        </g>
        <g transform="matrix(13.832,0,0,16.8877,-44097.7,-26793.5)">
            <g transform="matrix(49.3455,0,0,49.3455,3542.34,1715.58)">
            </g>
            <text x="3393.53px" y="1715.58px" style="font-family:'ArialRoundedMTBold', 'Arial Rounded MT Bold', sans-serif;font-size:49.345px;stroke:black;stroke-width:2.43px;">BL<tspan x="3456.37px 3496.05px " y="1715.58px 1715.58px ">OW</tspan></text>
        </g>
    </g>
</svg>
